<?xml version="1.0" encoding="UTF-8"?>
<svg xmlns="http://www.w3.org/2000/svg" viewBox="0 0 19 19" role="img" aria-label="Board Arabia Najdi mirrored diamond mark">
  <defs>
    <clipPath id="r"><rect width="19" height="19" rx="4.18" ry="4.18"/></clipPath>
  </defs>
  <g clip-path="url(#r)">
    <rect width="19" height="19" fill="#1C1343"/>
    <rect x="0" y="0" width="1" height="1" fill="#B8896A"/>
<rect x="2" y="0" width="1" height="1" fill="#B8896A"/>
<rect x="4" y="0" width="1" height="1" fill="#B8896A"/>
<rect x="6" y="0" width="1" height="1" fill="#B8896A"/>
<rect x="8" y="0" width="1" height="1" fill="#B8896A"/>
<rect x="10" y="0" width="1" height="1" fill="#B8896A"/>
<rect x="12" y="0" width="1" height="1" fill="#B8896A"/>
<rect x="14" y="0" width="1" height="1" fill="#B8896A"/>
<rect x="16" y="0" width="1" height="1" fill="#B8896A"/>
<rect x="18" y="0" width="1" height="1" fill="#B8896A"/>
<rect x="0" y="2" width="1" height="1" fill="#B8896A"/>
<rect x="5" y="2" width="1" height="1" fill="#B8896A"/>
<rect x="13" y="2" width="1" height="1" fill="#B8896A"/>
<rect x="18" y="2" width="1" height="1" fill="#B8896A"/>
<rect x="4" y="3" width="1" height="1" fill="#B8896A"/>
<rect x="5" y="3" width="1" height="1" fill="#A796DC"/>
<rect x="6" y="3" width="1" height="1" fill="#B8896A"/>
<rect x="12" y="3" width="1" height="1" fill="#B8896A"/>
<rect x="13" y="3" width="1" height="1" fill="#A796DC"/>
<rect x="14" y="3" width="1" height="1" fill="#B8896A"/>
<rect x="0" y="4" width="1" height="1" fill="#B8896A"/>
<rect x="3" y="4" width="1" height="1" fill="#B8896A"/>
<rect x="4" y="4" width="1" height="1" fill="#A796DC"/>
<rect x="6" y="4" width="1" height="1" fill="#A796DC"/>
<rect x="7" y="4" width="1" height="1" fill="#B8896A"/>
<rect x="11" y="4" width="1" height="1" fill="#B8896A"/>
<rect x="12" y="4" width="1" height="1" fill="#A796DC"/>
<rect x="14" y="4" width="1" height="1" fill="#A796DC"/>
<rect x="15" y="4" width="1" height="1" fill="#B8896A"/>
<rect x="18" y="4" width="1" height="1" fill="#B8896A"/>
<rect x="2" y="5" width="1" height="1" fill="#B8896A"/>
<rect x="3" y="5" width="1" height="1" fill="#A796DC"/>
<rect x="5" y="5" width="1" height="1" fill="#B8896A"/>
<rect x="7" y="5" width="1" height="1" fill="#A796DC"/>
<rect x="8" y="5" width="1" height="1" fill="#B8896A"/>
<rect x="10" y="5" width="1" height="1" fill="#B8896A"/>
<rect x="11" y="5" width="1" height="1" fill="#A796DC"/>
<rect x="13" y="5" width="1" height="1" fill="#B8896A"/>
<rect x="15" y="5" width="1" height="1" fill="#A796DC"/>
<rect x="16" y="5" width="1" height="1" fill="#B8896A"/>
<rect x="0" y="6" width="1" height="1" fill="#B8896A"/>
<rect x="3" y="6" width="1" height="1" fill="#B8896A"/>
<rect x="4" y="6" width="1" height="1" fill="#A796DC"/>
<rect x="6" y="6" width="1" height="1" fill="#A796DC"/>
<rect x="7" y="6" width="1" height="1" fill="#B8896A"/>
<rect x="9" y="6" width="1" height="1" fill="#B8896A"/>
<rect x="11" y="6" width="1" height="1" fill="#B8896A"/>
<rect x="12" y="6" width="1" height="1" fill="#A796DC"/>
<rect x="14" y="6" width="1" height="1" fill="#A796DC"/>
<rect x="15" y="6" width="1" height="1" fill="#B8896A"/>
<rect x="18" y="6" width="1" height="1" fill="#B8896A"/>
<rect x="4" y="7" width="1" height="1" fill="#B8896A"/>
<rect x="5" y="7" width="1" height="1" fill="#A796DC"/>
<rect x="6" y="7" width="1" height="1" fill="#B8896A"/>
<rect x="8" y="7" width="1" height="1" fill="#B8896A"/>
<rect x="10" y="7" width="1" height="1" fill="#B8896A"/>
<rect x="12" y="7" width="1" height="1" fill="#B8896A"/>
<rect x="13" y="7" width="1" height="1" fill="#A796DC"/>
<rect x="14" y="7" width="1" height="1" fill="#B8896A"/>
<rect x="0" y="8" width="1" height="1" fill="#B8896A"/>
<rect x="5" y="8" width="1" height="1" fill="#B8896A"/>
<rect x="7" y="8" width="1" height="1" fill="#B8896A"/>
<rect x="9" y="8" width="1" height="1" fill="#4B3F9A"/>
<rect x="11" y="8" width="1" height="1" fill="#B8896A"/>
<rect x="13" y="8" width="1" height="1" fill="#B8896A"/>
<rect x="18" y="8" width="1" height="1" fill="#B8896A"/>
<rect x="6" y="9" width="1" height="1" fill="#B8896A"/>
<rect x="8" y="9" width="1" height="1" fill="#4B3F9A"/>
<rect x="9" y="9" width="1" height="1" fill="#F6F5FB"/>
<rect x="10" y="9" width="1" height="1" fill="#4B3F9A"/>
<rect x="12" y="9" width="1" height="1" fill="#B8896A"/>
<rect x="0" y="10" width="1" height="1" fill="#B8896A"/>
<rect x="5" y="10" width="1" height="1" fill="#B8896A"/>
<rect x="7" y="10" width="1" height="1" fill="#B8896A"/>
<rect x="9" y="10" width="1" height="1" fill="#4B3F9A"/>
<rect x="11" y="10" width="1" height="1" fill="#B8896A"/>
<rect x="13" y="10" width="1" height="1" fill="#B8896A"/>
<rect x="18" y="10" width="1" height="1" fill="#B8896A"/>
<rect x="4" y="11" width="1" height="1" fill="#B8896A"/>
<rect x="5" y="11" width="1" height="1" fill="#A796DC"/>
<rect x="6" y="11" width="1" height="1" fill="#B8896A"/>
<rect x="8" y="11" width="1" height="1" fill="#B8896A"/>
<rect x="10" y="11" width="1" height="1" fill="#B8896A"/>
<rect x="12" y="11" width="1" height="1" fill="#B8896A"/>
<rect x="13" y="11" width="1" height="1" fill="#A796DC"/>
<rect x="14" y="11" width="1" height="1" fill="#B8896A"/>
<rect x="0" y="12" width="1" height="1" fill="#B8896A"/>
<rect x="3" y="12" width="1" height="1" fill="#B8896A"/>
<rect x="4" y="12" width="1" height="1" fill="#A796DC"/>
<rect x="6" y="12" width="1" height="1" fill="#A796DC"/>
<rect x="7" y="12" width="1" height="1" fill="#B8896A"/>
<rect x="9" y="12" width="1" height="1" fill="#B8896A"/>
<rect x="11" y="12" width="1" height="1" fill="#B8896A"/>
<rect x="12" y="12" width="1" height="1" fill="#A796DC"/>
<rect x="14" y="12" width="1" height="1" fill="#A796DC"/>
<rect x="15" y="12" width="1" height="1" fill="#B8896A"/>
<rect x="18" y="12" width="1" height="1" fill="#B8896A"/>
<rect x="2" y="13" width="1" height="1" fill="#B8896A"/>
<rect x="3" y="13" width="1" height="1" fill="#A796DC"/>
<rect x="5" y="13" width="1" height="1" fill="#B8896A"/>
<rect x="7" y="13" width="1" height="1" fill="#A796DC"/>
<rect x="8" y="13" width="1" height="1" fill="#B8896A"/>
<rect x="10" y="13" width="1" height="1" fill="#B8896A"/>
<rect x="11" y="13" width="1" height="1" fill="#A796DC"/>
<rect x="13" y="13" width="1" height="1" fill="#B8896A"/>
<rect x="15" y="13" width="1" height="1" fill="#A796DC"/>
<rect x="16" y="13" width="1" height="1" fill="#B8896A"/>
<rect x="0" y="14" width="1" height="1" fill="#B8896A"/>
<rect x="3" y="14" width="1" height="1" fill="#B8896A"/>
<rect x="4" y="14" width="1" height="1" fill="#A796DC"/>
<rect x="6" y="14" width="1" height="1" fill="#A796DC"/>
<rect x="7" y="14" width="1" height="1" fill="#B8896A"/>
<rect x="11" y="14" width="1" height="1" fill="#B8896A"/>
<rect x="12" y="14" width="1" height="1" fill="#A796DC"/>
<rect x="14" y="14" width="1" height="1" fill="#A796DC"/>
<rect x="15" y="14" width="1" height="1" fill="#B8896A"/>
<rect x="18" y="14" width="1" height="1" fill="#B8896A"/>
<rect x="4" y="15" width="1" height="1" fill="#B8896A"/>
<rect x="5" y="15" width="1" height="1" fill="#A796DC"/>
<rect x="6" y="15" width="1" height="1" fill="#B8896A"/>
<rect x="12" y="15" width="1" height="1" fill="#B8896A"/>
<rect x="13" y="15" width="1" height="1" fill="#A796DC"/>
<rect x="14" y="15" width="1" height="1" fill="#B8896A"/>
<rect x="0" y="16" width="1" height="1" fill="#B8896A"/>
<rect x="5" y="16" width="1" height="1" fill="#B8896A"/>
<rect x="13" y="16" width="1" height="1" fill="#B8896A"/>
<rect x="18" y="16" width="1" height="1" fill="#B8896A"/>
<rect x="0" y="18" width="1" height="1" fill="#B8896A"/>
<rect x="2" y="18" width="1" height="1" fill="#B8896A"/>
<rect x="4" y="18" width="1" height="1" fill="#B8896A"/>
<rect x="6" y="18" width="1" height="1" fill="#B8896A"/>
<rect x="8" y="18" width="1" height="1" fill="#B8896A"/>
<rect x="10" y="18" width="1" height="1" fill="#B8896A"/>
<rect x="12" y="18" width="1" height="1" fill="#B8896A"/>
<rect x="14" y="18" width="1" height="1" fill="#B8896A"/>
<rect x="16" y="18" width="1" height="1" fill="#B8896A"/>
<rect x="18" y="18" width="1" height="1" fill="#B8896A"/>
  </g>
</svg>
